<?xml version="1.0" encoding="utf-8"?>
<!-- Generator: Adobe Illustrator 24.3.0, SVG Export Plug-In . SVG Version: 6.00 Build 0)  -->
<svg version="1.1" id="Layer_1" xmlns="http://www.w3.org/2000/svg" xmlns:xlink="http://www.w3.org/1999/xlink" x="0px" y="0px"
	 viewBox="0 0 32 32" style="enable-background:new 0 0 32 32;" xml:space="preserve">
<style type="text/css">
	.st0{fill:#1EA4C4;}
</style>
<circle class="st0" cx="16" cy="16" r="16"/>
<circle id="ellipse" cx="16" cy="16" r="14.5"/>
<path id="logo" class="st0" d="M23,10.8c0,0-2-1.6-4.3-1.7l-0.3,0.4c2.1,0.5,3.1,1.2,4.1,2.1c-1.7-0.9-3.5-1.7-6.6-1.7
	s-4.7,0.8-6.6,1.7c1.1-0.9,2.1-1.7,4.1-2.1l-0.3-0.4C10.9,9.3,9,10.8,9,10.8S6.8,14,6.5,20.3c2.3,2.5,5.6,2.5,5.6,2.5l0.7-0.9
	c-1.2-0.4-2.5-1.2-3.7-2.5c1.3,1.1,3.5,2.1,7,2.1s5.5-1.1,7-2.1c-1.2,1.3-2.5,2.1-3.7,2.5l0.7,0.9c0,0,3.3,0,5.6-2.5
	C25.1,14,23,10.8,23,10.8z M13.2,18.6c-0.8,0-1.5-0.8-1.5-1.7c0-0.9,0.7-1.7,1.5-1.7s1.5,0.8,1.5,1.7C14.7,17.9,14,18.6,13.2,18.6z
	 M18.8,18.6c-0.8,0-1.5-0.8-1.5-1.7c0-0.9,0.7-1.7,1.5-1.7s1.5,0.8,1.5,1.7C20.3,17.9,19.6,18.6,18.8,18.6z"/>
</svg>
