<?xml version="1.0" encoding="utf-8"?>
<!-- Generator: Adobe Illustrator 24.3.0, SVG Export Plug-In . SVG Version: 6.00 Build 0)  -->
<svg version="1.1" id="Layer_1" xmlns="http://www.w3.org/2000/svg" xmlns:xlink="http://www.w3.org/1999/xlink" x="0px" y="0px"
	 viewBox="0 0 32 32" style="enable-background:new 0 0 32 32;" xml:space="preserve">
<style type="text/css">
	.st0{fill:#1EA4C4;}
</style>
<circle class="st0" cx="16" cy="16" r="16"/>
<circle id="ellipse" cx="16" cy="16" r="14.5"/>
<g>
	<path class="st0" d="M20,7.5h-8c-2.5,0-4.4,2-4.4,4.6v7.8c0,2.5,1.9,4.5,4.5,4.6h8c2.5,0,4.5-2,4.5-4.6v-7.8
		C24.5,9.6,22.5,7.5,20,7.5z M23,19.8c0,1.7-1.4,3.1-3.1,3.1h-7.7c-1.7,0-3.1-1.4-3-3.1v-7.6c0-1.7,1.4-3.1,3-3.1h7.7
		c1.7,0,3.1,1.4,3.1,3.1V19.8z"/>
	<path class="st0" d="M16,11.7c-2.4-0.1-4.4,1.9-4.4,4.2c-0.1,2.4,1.9,4.4,4.2,4.4s4.4-1.9,4.4-4.2V16C20.3,13.6,18.4,11.7,16,11.7z
		 M16,18.8c-1.5,0-2.8-1.2-2.9-2.7c0-1.5,1.2-2.8,2.7-2.9c1.5-0.1,2.8,1.2,2.9,2.7V16C18.7,17.5,17.5,18.8,16,18.8z"/>
	<path class="st0" d="M20.4,10.4c0.5,0,0.9,0.4,0.9,1c0,0.6-0.4,1-0.9,1s-0.9-0.4-0.9-1C19.5,10.8,20,10.4,20.4,10.4z"/>
</g>
</svg>
