<?xml version="1.0" encoding="utf-8"?>
<!-- Generator: Adobe Illustrator 24.3.0, SVG Export Plug-In . SVG Version: 6.00 Build 0)  -->
<svg version="1.1" id="Layer_1" xmlns="http://www.w3.org/2000/svg" xmlns:xlink="http://www.w3.org/1999/xlink" x="0px" y="0px"
	 viewBox="0 0 32 32" style="enable-background:new 0 0 32 32;" xml:space="preserve">
<style type="text/css">
	.st0{fill:#1EA4C4;}
</style>
<g>
	<circle class="st0" cx="16" cy="16" r="16"/>
	<circle id="ellipse" cx="16" cy="16" r="14.5"/>
</g>
<g id="LinkedIn_1_">
	<rect x="8.4" y="13.4" class="st0" width="3.1" height="9.9"/>
	<path class="st0" d="M20,13.3c-1.8,0-2.9,1-3.1,1.6v-1.6h-3.5c0,0.8,0,9.9,0,9.9h3.5v-5.3c0-0.3,0-0.6,0.1-0.8
		c0.2-0.6,0.8-1.2,1.7-1.2c1.2,0,1.8,0.9,1.8,2.3v5.1H24v-5.5C24,14.7,22.3,13.3,20,13.3z"/>
	<path class="st0" d="M9.9,8.7C8.8,8.7,8,9.5,8,10.4c0,1,0.7,1.7,1.9,1.7h0c1.2,0,1.9-0.8,1.9-1.7C11.8,9.5,11.1,8.7,9.9,8.7z"/>
</g>
</svg>
