<?xml version="1.0" encoding="utf-8"?>
<!-- Generator: Adobe Illustrator 24.3.0, SVG Export Plug-In . SVG Version: 6.00 Build 0)  -->
<svg version="1.1" id="Layer_1" xmlns="http://www.w3.org/2000/svg" xmlns:xlink="http://www.w3.org/1999/xlink" x="0px" y="0px"
	 viewBox="0 0 32 32" style="enable-background:new 0 0 32 32;" xml:space="preserve">
<style type="text/css">
	.st0{fill:#1EA4C4;}
</style>
<g>
	<circle class="st0" cx="16" cy="16" r="16"/>
	<circle id="ellipse_1_" cx="16" cy="16" r="14.5"/>
</g>
<path id="logo_2_" class="st0" d="M16.5,20c-0.6,0.6-1.3,1.2-1.9,1.9c-0.2,0.2-0.5,0.3-0.8,0.3c-0.2,0-0.3-0.1-0.4-0.3
	c-0.5-1.5-1-3-1.5-4.5c0-0.1-0.1-0.2-0.3-0.3c-1.1-0.3-2.3-0.7-3.4-1.1C8.2,16,8,15.9,7.8,15.8c-0.2-0.2-0.3-0.4-0.1-0.6
	C8,15,8.2,14.9,8.5,14.8c1.4-0.5,2.8-1.1,4.2-1.6c3.5-1.4,7.1-2.7,10.6-4.1c0.7-0.3,1.2,0.1,1.1,0.8c0,0.5-0.2,0.9-0.3,1.4
	c-0.8,3.6-1.5,7.2-2.3,10.9c-0.2,0.9-0.8,1.1-1.5,0.6c-1.2-0.9-2.4-1.7-3.6-2.6C16.7,20.1,16.6,20,16.5,20z M13.9,21.1
	C13.9,21.1,13.9,21.1,13.9,21.1c0,0,0.1-0.1,0.1-0.1c0.1-0.8,0.2-1.6,0.2-2.5c0-0.2,0.1-0.3,0.2-0.4c1.1-1,2.2-2,3.3-2.9
	c1.2-1.1,2.4-2.2,3.6-3.3c0.1-0.1,0.1-0.2,0.2-0.3c-0.1,0-0.2-0.1-0.3,0c-0.1,0-0.3,0.1-0.4,0.2c-2.7,1.7-5.3,3.4-8,5
	c-0.2,0.1-0.2,0.2-0.1,0.3c0.2,0.6,0.4,1.1,0.6,1.7C13.4,19.6,13.6,20.3,13.9,21.1z"/>
</svg>
